<svg width="589.789734" height="94.406250" viewBox="0 0 589.79 94.4062" fill="none" xmlns="http://www.w3.org/2000/svg" xmlns:xlink="http://www.w3.org/1999/xlink">
	<desc>
			Created with Pixso.
	</desc>
	<defs/>
	<path id="#творим добро" d="M38.57 69.82L31.75 69.82L34.94 50.46L17.2 50.46L14.03 69.82L7.21 69.82L10.38 50.46L0 50.46L1.07 43.64L11.5 43.64L14.39 26.17L4.07 26.17L5.17 19.35L15.51 19.35L18.67 0L25.5 0L22.33 19.35L40.05 19.35L43.21 0L50.03 0L46.87 19.35L57.25 19.35L56.17 26.17L45.75 26.17L42.89 43.64L53.17 43.64L52.07 50.46L41.76 50.46L38.57 69.82ZM399.7 8.9Q396.63 9.04 393.56 10.4Q389.04 12.42 386.93 15.72Q385.9 17.33 385.38 19.08Q384.82 20.94 384.82 22.96Q384.82 26.9 386.79 31.14Q388.76 35.36 392.41 39.18Q390.44 40.38 388.8 41.93Q386.62 44.01 385.05 46.73Q382.34 51.49 381.84 58.1Q381.69 60.07 382.01 61.96Q382.08 62.39 382.17 62.81Q382.62 64.73 383.63 66.29Q383.83 66.6 384.05 66.89Q384.12 66.98 384.2 67.08Q385.53 68.73 387.61 69.77Q389.81 70.87 392.98 70.87Q396.92 70.87 400.17 69.37Q400.24 69.33 400.31 69.3Q401.28 68.83 402.2 68.28Q404.42 66.92 406.31 65.03Q409.01 62.34 411.02 58.73Q413.04 55.12 414.4 51.09Q416.75 51.62 419.35 51.93Q418.7 54.81 418.81 58.1Q418.85 59.05 419 59.99Q419.23 61.42 419.72 62.81Q420.21 64.16 420.97 65.33Q421.5 66.15 422.16 66.89Q423.8 68.67 426.19 69.77Q428.61 70.87 431.77 70.87Q437.34 70.87 441.38 68.38Q441.86 68.08 442.32 67.75Q444.71 66.03 446.58 63.87Q448.1 62.1 449.28 60.04Q450.78 57.42 451.77 54.61Q452.53 52.48 452.98 50.25Q454.04 45.04 453.75 40.82Q454.9 41.01 456.47 40.82Q458.07 40.64 459.03 40.14Q461.91 38.9 462.97 37.47Q464.02 36.02 464.79 34.28Q463.43 34.59 461.89 34.78Q460.36 34.96 459.22 34.96Q456.82 34.96 454.41 34Q452.02 33.04 450.68 32.27Q449.91 32.95 448.95 33.91L447.22 35.64Q441.36 34.87 436.13 36.07Q430.91 37.26 426.97 40.18L426.97 40.19Q425.57 41.23 424.39 42.48Q422.25 44.74 420.82 47.69Q420.53 48.3 420.28 48.93Q419.93 48.92 419.58 48.89Q417.37 48.7 415.36 48.11Q415.38 48.05 415.39 47.99Q416.51 43.93 416.98 39.67Q417.47 35.36 417.35 31.33Q417.26 27.28 416.53 23.74Q415.83 20.17 414.49 17.6Q413.23 15.09 411.32 13.24Q411.04 12.96 410.74 12.7Q409.29 11.42 407.62 10.57Q406.65 10.07 405.61 9.72Q404.73 9.42 403.82 9.23Q401.82 8.8 399.7 8.9ZM472.07 21.86Q472.28 22.96 473.24 23.92Q476.87 27.58 479.71 30.18Q481.66 31.96 483.05 34.1Q483.67 35.07 484.19 36.11Q478.42 35.46 473.62 36.6Q468.91 37.73 465.52 40.47Q465.44 40.53 465.37 40.59Q464.61 41.21 463.93 41.91Q461.52 44.39 460.09 47.83Q458.26 52.24 458.45 58.1Q458.49 59.05 458.64 59.99Q458.87 61.42 459.37 62.81Q459.85 64.16 460.61 65.33Q461.14 66.15 461.8 66.89Q463.44 68.67 465.83 69.77Q468.25 70.87 471.41 70.87Q475.35 70.87 478.37 69.58Q481.03 68.43 483.12 66.62Q483.41 66.37 483.69 66.11Q484.32 65.53 484.88 64.91Q486.43 63.2 487.58 61.12Q489.18 58.28 490.23 55.12Q491.76 50.22 491.66 45.82Q491.57 41.41 490.47 37.71Q489.37 34 487.54 31.12Q485.71 28.24 483.79 26.43Q483.63 26.26 483.66 26.17Q483.73 25.99 484.51 26.08Q485.71 26.22 487.87 26.29Q490.04 26.34 492.76 25.96Q495.51 25.57 498.13 24.09Q500.78 22.59 502.94 19.61Q505.12 16.64 506.17 11.55L502.7 9.63Q501.37 12.89 499.4 14.67Q497.43 16.45 495.18 17.17Q495.1 17.2 495.01 17.23Q492.84 17.88 490.47 17.88Q488.72 17.88 486.98 17.73Q486.3 17.68 485.62 17.6Q483.22 17.29 481 17.06Q478.79 16.82 476.99 17.01Q475.26 17.2 474.11 17.97Q472.96 18.75 472.42 19.75Q472.12 20.31 472.05 20.9Q471.98 21.37 472.07 21.86ZM410.37 38.53L409.87 36.11Q403.83 35.36 399.02 36.51Q396.63 33.35 394.99 30.04Q393.37 26.71 392.79 23.6Q392.2 20.48 392.67 17.95Q392.99 16.31 393.85 15.05Q394.33 14.34 394.99 13.75Q396.31 12.58 397.71 12.47Q398.15 12.44 398.6 12.51Q400.48 12.79 402.23 14.34Q404.01 15.86 405.63 18.46Q407.27 21.04 408.63 24.21Q409.41 26.13 409.87 28.64Q410.37 31.12 410.55 33.96Q410.74 36.79 410.6 39.91Q410.46 43.03 409.97 46Q407.95 44.95 406.08 43.57Q404.2 42.16 402.59 40.54Q405.84 38.81 410.37 38.53ZM114.87 28.54L119.18 19.89Q109.32 17.92 100.07 19.52Q99.43 19.63 98.79 19.75Q94.58 20.59 90.7 22.22Q85.5 24.39 80.88 27.96L83.95 32.48Q91.55 28.05 99.02 27.39Q106.53 26.71 114.87 28.54ZM138.86 48.23Q140.13 45.35 141.93 41.88Q143.67 41.41 146.97 39.89Q150.3 38.34 153.74 36.09Q157.21 33.82 159.93 30.98Q162.67 28.14 163.26 24.98Q163.78 21.86 162.52 20.73Q162.43 20.65 162.32 20.57Q160.85 19.52 157.4 19.52Q156.67 19.55 155.94 19.63Q152.37 20.05 148.94 21.72Q144.82 23.74 141.07 27.07Q137.34 30.37 134.1 34.64C131.96 37.48 130.11 40.41 128.55 43.42C126.99 46.42 125.77 49.42 124.89 52.4Q123.89 55.87 123.67 58.92Q123.58 59.01 123.49 59.1Q121.78 60.98 120.05 62.53Q118.31 64.05 116.63 65.01Q114.96 65.97 113.53 65.97Q113.37 65.97 113.23 65.93Q112.84 65.81 112.55 65.36Q112.17 64.73 112.67 63.49L116.88 51Q117.89 47.3 116.5 45.15Q116.31 44.84 116.06 44.57Q115.79 44.27 115.48 44Q113.56 42.37 110.25 42.37Q108.63 42.37 106.67 42.75Q104.7 43.12 102.73 43.85Q101.42 44.33 100.21 45Q99.61 45.34 99.02 45.72Q97.45 46.77 96.36 48.14Q96.46 47.95 96.61 47.64Q97.01 46.87 97.43 45.72Q97.88 44.57 98.2 43.33Q98.56 42.07 98.65 41.2Q99.06 38.61 97.98 37.05Q97.82 36.82 97.62 36.6Q97.52 36.5 97.42 36.4Q95.94 34.96 93.07 34.96Q91.45 34.96 89.37 35.41Q87.31 35.83 85.29 36.56Q83.27 37.26 81.59 38.17Q79.92 39.09 79.15 40.05L80.6 35.46L68.98 35.46L57.26 69.82L69.07 69.82L77.53 46.78Q78.49 44.67 79.74 43.42Q80.98 42.16 82.17 41.5Q83.37 40.82 84.47 40.64Q85.6 40.45 86.35 40.45Q86.67 40.45 86.88 40.6Q87.2 40.81 87.31 41.32Q87.44 41.84 87.37 42.34Q87.33 42.64 87.21 42.93L78 69.82L89.72 69.82L95.58 54.46Q96.33 52.35 97.48 51.11Q98.65 49.85 99.85 49.19Q101.04 48.51 102.1 48.32Q103.15 48.11 103.83 48.11Q104.3 48.11 104.52 48.35Q104.66 48.5 104.7 48.75Q104.79 49.38 104.51 50.13L100.76 60.3Q98.8 65.64 100.66 68.2Q100.71 68.27 100.76 68.34Q100.95 68.57 101.16 68.79Q103.2 70.87 107.37 70.87Q110.93 70.87 113.86 69.96Q116.21 69.22 118.31 68.03Q118.82 67.74 119.32 67.42Q120.28 66.81 121.19 66.12Q122.64 65.04 123.96 63.79Q124.42 65.68 125.47 67.16Q125.78 67.59 126.14 67.99C127.84 69.85 130.17 70.78 133.12 70.78Q135.09 70.78 136.98 70.37Q138.74 69.99 140.43 69.25Q142.93 68.16 145.1 66.61Q145.99 65.98 146.83 65.27Q147.56 64.65 148.24 63.99Q150.28 62.02 151.96 59.69Q154.24 56.57 155.67 53.41Q158.88 53.3 161.21 52.86Q160.77 55.33 160.86 58.1Q160.89 59.05 161.05 59.99Q161.28 61.42 161.77 62.81Q162.25 64.16 163.01 65.33Q163.54 66.15 164.21 66.89Q165.85 68.67 168.24 69.77Q170.65 70.87 173.82 70.87Q179.39 70.87 183.42 68.38Q183.91 68.08 184.36 67.75Q186.76 66.03 188.63 63.87Q190.15 62.1 191.33 60.04Q192.83 57.42 193.82 54.61Q194.57 52.48 195.03 50.25Q196.08 45.04 195.8 40.82Q196.95 41.01 198.52 40.82Q200.11 40.64 201.08 40.14Q203.96 38.9 205.01 37.47Q206.07 36.02 206.84 34.28Q205.48 34.59 203.93 34.78Q202.41 34.96 201.26 34.96Q198.87 34.96 196.46 34Q194.07 33.04 192.73 32.27Q191.96 32.95 191 33.91L189.26 35.64Q183.4 34.87 178.18 36.07Q172.96 37.26 169.02 40.18L169.01 40.19Q167.62 41.23 166.44 42.48Q164.29 44.74 162.87 47.69Q162.39 48.68 162.03 49.73Q159.39 50.28 156.82 50.13Q157.68 47.55 158.06 45.63Q158.12 45.34 158.16 45.04Q158.43 43.4 158.27 41.69Q158.04 39.84 157.01 39.07Q156.65 38.8 156.18 38.67Q155.92 38.59 155.65 38.54Q154.12 38.26 152.41 39Q151.38 39.42 150.54 40.08Q149.66 40.78 148.99 41.74Q147.85 43.38 147.54 45.18Q147.49 45.42 147.46 45.67Q147.39 46.33 147.42 46.98Q147.48 48.38 148.03 49.75Q148.16 50.09 148.34 50.41Q149.22 51.98 151.05 53.01Q150.09 55.12 148.45 57.44Q147.01 59.49 145.32 61.31Q145.12 61.53 144.91 61.75Q142.99 63.77 141.02 65.08Q139.05 66.37 137.43 66.46Q136.44 66.55 135.94 66.1Q135.91 66.07 135.89 66.04Q135.42 65.5 135.42 63.86Q135.42 61.17 135.74 58.73Q136.07 56.27 136.85 53.69Q137.62 51.09 138.86 48.23ZM123.96 63.79Q123.6 62.32 123.6 60.6Q123.6 59.78 123.67 58.92Q125.31 57.14 126.96 55.42Q127.46 55.61 127.92 56.01Q128.35 56.35 128.61 56.78Q128.64 56.83 128.67 56.88Q128.79 57.06 128.85 57.25Q128.96 57.57 128.93 57.93Q128.88 58.5 128.39 59.06Q126.28 61.57 124.08 63.67Q124.02 63.73 123.96 63.79ZM147.89 35.69Q145.68 37.07 144.04 37.75Q144.91 36.21 146.6 33.72Q147.3 32.67 148.04 31.64Q149.06 30.21 150.14 28.82Q152.01 26.43 153.89 24.7Q155.76 22.96 157 22.96Q157.06 22.96 157.12 22.98Q157.44 23.06 157.64 23.6Q157.87 24.21 157.68 25.07Q157.4 26.9 155.81 28.87Q154.24 30.84 152.15 32.57Q150.09 34.28 147.89 35.69ZM21.21 26.17L18.32 43.64L36.07 43.64L38.92 26.17L21.21 26.17ZM573.94 33.91L572.21 35.64Q566.35 34.87 561.12 36.07Q555.9 37.26 551.97 40.18L551.96 40.19Q550.56 41.23 549.38 42.48Q547.24 44.74 545.82 47.69Q545.79 47.74 545.77 47.79Q545.08 47.81 544.4 47.83Q541.97 47.92 539.48 48.21Q539.55 47.37 539.55 46.53Q539.55 45.16 539.37 43.8Q539.09 41.6 538.31 39.67Q537.71 38.14 536.73 36.92Q536.48 36.61 536.2 36.32Q535.72 35.8 535.16 35.37Q534.17 34.62 532.94 34.19Q527.75 32.46 522.72 32.87Q520.52 33.04 518.34 33.63Q517.12 33.96 515.94 34.39Q510.22 36.44 505.31 40.73Q501.16 44.39 497.95 49.47Q496.02 52.54 494.63 55.83Q493.71 58.01 493.03 60.28Q491.66 64.77 491.34 69.34Q491.26 70.56 491.25 71.78Q491.19 76.51 492.59 80.76Q492.91 81.73 493.31 82.68Q494.33 85.06 495.92 86.96Q496.84 88.06 497.95 89.01Q500.98 91.61 505.31 94.4L518.15 50.22L520.85 41.6L508.17 46.28L497.62 81.35Q496.2 77.75 495.87 74.06Q495.69 72.02 495.84 69.96Q496.26 64.14 498.23 58.96Q500.2 53.78 503.09 49.61Q505.97 45.44 508.76 43.21Q510.37 41.91 512.17 40.96Q513.8 40.1 515.58 39.53Q519.33 38.34 522.44 38.97Q523.86 39.25 524.99 39.97Q526.34 40.85 527.27 42.37Q529.01 45.14 528.05 50.71Q526.12 51.67 524.01 53.08Q521.9 54.46 520.12 56.15Q518.37 57.82 517.1 59.69Q515.86 61.57 515.58 63.49Q515.14 66.46 516.42 67.83Q516.58 68 516.77 68.15Q518.46 69.44 521.23 69.53Q524.98 69.63 527.86 68.15Q529.05 67.53 530.11 66.74Q531.63 65.63 532.9 64.17Q535.05 61.66 536.53 58.45Q538.03 55.21 538.99 51.86Q540.63 51.67 542.88 51.53Q543.68 51.48 544.45 51.46Q543.69 54.54 543.8 58.1Q543.84 59.05 543.99 59.99Q544.22 61.42 544.71 62.81Q545.2 64.16 545.96 65.33Q546.49 66.15 547.15 66.89Q548.79 68.67 551.18 69.77Q553.6 70.87 556.76 70.87Q562.33 70.87 566.37 68.38Q566.85 68.08 567.31 67.75Q569.7 66.03 571.57 63.87Q573.09 62.1 574.27 60.04Q575.78 57.42 576.77 54.61Q577.52 52.48 577.97 50.25Q579.03 45.04 578.75 40.82Q579.89 41.01 581.46 40.82Q583.06 40.64 584.02 40.14Q586.9 38.9 587.96 37.47Q589.01 36.02 589.78 34.28Q588.43 34.59 586.88 34.78Q585.36 34.96 584.21 34.96Q581.82 34.96 579.4 34Q577.01 33.04 575.68 32.27Q574.9 32.95 573.94 33.91ZM203.62 89.01Q206.64 91.61 210.98 94.4L223.82 50.22L226.51 41.6L213.83 46.28L203.29 81.35Q201.87 77.75 201.54 74.06Q201.36 72.02 201.51 69.96Q201.93 64.14 203.9 58.96Q205.87 53.78 208.75 49.61Q211.63 45.44 214.42 43.21Q216.03 41.91 217.83 40.96Q219.46 40.1 221.24 39.53Q224.99 38.34 228.11 38.97Q229.52 39.25 230.65 39.97Q232 40.85 232.94 42.37Q234.67 45.14 233.71 50.71Q231.79 51.67 229.68 53.08Q227.57 54.46 225.79 56.15Q224.03 57.82 222.76 59.69Q221.52 61.57 221.24 63.49Q220.8 66.46 222.08 67.83Q222.25 68 222.44 68.15Q224.12 69.44 226.89 69.53Q230.64 69.63 233.52 68.15Q234.71 67.53 235.78 66.74Q237.3 65.63 238.56 64.17Q240.72 61.66 242.19 58.45Q243.69 55.21 244.66 51.86Q246.3 51.67 248.55 51.53Q250.8 51.39 252.91 51.49Q253.11 51.5 253.29 51.48Q252.64 53.36 252.04 55.19Q250.99 58.4 250.31 61.1Q249.65 63.77 249.65 65.2Q249.65 67.67 250.88 69.05Q251.13 69.34 251.43 69.58Q253.21 70.96 256.47 70.96Q259.88 70.96 262.92 69.92Q264.34 69.43 265.68 68.71Q269.9 66.46 274.43 61.26Q273.84 63.39 273.79 65.13Q273.75 66.84 274.4 68.1Q274.53 68.34 274.68 68.55Q275.35 69.48 276.51 70.05Q277.96 70.78 280.47 70.78Q281.41 70.78 282.33 70.64Q283.75 70.42 285.11 69.86Q285.17 69.84 285.23 69.81Q287.44 68.91 289.45 67.52Q290.9 66.5 292.23 65.31Q292.99 67.1 294.21 68.49L294.24 68.53Q294.81 69.16 295.51 69.58Q296.76 70.33 298.41 70.4Q298.81 70.43 299.2 70.4Q301.57 70.25 303.83 68.2Q306.48 65.78 309.17 61.75Q311.87 57.72 314.63 52.54Q317.42 47.36 320.58 41.88L314.07 61.26Q312.43 66.16 313.72 68.48Q313.89 68.79 314.12 69.06Q315.57 70.78 319.06 70.78Q321.08 70.78 323.7 68.29Q326.35 65.78 329.19 62.03Q332.02 58.28 334.86 53.92Q337.69 49.57 340.08 45.82L335.19 61.85Q334.62 63.96 334.55 65.69Q334.51 67.42 335.19 68.67Q335.29 68.86 335.42 69.05Q336.09 70.02 337.3 70.64Q338.75 71.36 341.23 71.36Q343.65 71.36 346.08 70.45Q348.52 69.53 350.82 68.1Q352.43 67.1 353.89 65.91Q354.54 65.38 355.16 64.82Q357.17 63 358.91 61.07Q359.14 60.81 359.28 60.49Q359.58 59.79 359.37 58.87Q359.18 57.97 358.64 57.41Q358.38 57.14 358.04 56.95L355.76 59.22Q354.48 60.51 353.09 61.75Q351.71 63 350.3 64.05Q348.92 65.1 347.96 65.69Q346.93 66.21 346.35 65.9Q346.17 65.81 346.04 65.64Q346 65.59 345.96 65.53Q345.49 64.81 345.94 63.49L355.44 35.06L343.83 35.06L343.83 34.96L343.74 35.06Q337.79 43.61 334.23 48.75Q330.69 53.88 328.72 56.62Q326.75 59.36 326.16 60.09Q325.72 60.62 325.68 60.59Q325.67 60.58 325.69 60.51L334.32 35.06L320.21 34.96Q319.34 36.51 317.84 39.3Q316.37 42.07 314.58 45.35Q312.83 48.6 310.81 52.03Q308.79 55.42 306.92 58.26Q305.04 61.07 303.41 62.9Q301.79 64.73 300.73 64.92Q300.09 64.87 299.68 64.54Q299.22 64.17 299.04 63.44Q298.72 62.03 298.91 60.23Q298.93 60.03 298.95 59.84Q299.15 58.21 299.66 56.62Q300.24 54.84 300.83 53.97L291.5 54.56Q290.94 56.48 290.98 59.17Q291 60.17 291.13 61.14Q291.09 61.17 291.07 61.19Q289.68 62.43 288.28 63.49Q286.89 64.54 285.93 65.1Q284.89 65.64 284.3 65.32Q284.14 65.23 284.01 65.08Q283.99 65.06 283.98 65.03Q283.46 64.31 283.92 62.9L293.53 35.15L282 35.06L274.61 55.12Q274.12 56.48 272.64 58.45Q271.17 60.42 269.29 62.15Q267.42 63.86 265.45 65.01Q263.48 66.16 262.12 65.88Q261.8 65.88 261.54 65.75Q261.2 65.58 260.97 65.17Q260.95 65.13 260.93 65.08Q260.62 64.38 260.97 63.39L271.17 35.15L259.35 35.06Q259.26 35.46 258.49 37.42Q257.71 39.39 256.66 42.28Q255.74 44.77 254.64 47.74Q252.3 47.75 250.07 47.83Q247.63 47.92 245.15 48.21Q245.22 47.37 245.22 46.53Q245.22 45.16 245.03 43.8Q244.75 41.6 243.98 39.67Q243.38 38.14 242.39 36.92Q242.14 36.61 241.87 36.32Q241.38 35.8 240.82 35.37Q239.83 34.62 238.61 34.19Q233.41 32.46 228.39 32.87Q226.18 33.04 224.01 33.63Q222.79 33.96 221.6 34.39Q215.89 36.44 210.98 40.73Q206.83 44.39 203.62 49.47Q201.68 52.54 200.29 55.83Q199.37 58.01 198.69 60.28Q197.32 64.77 197.01 69.34Q196.92 70.56 196.91 71.78Q196.86 76.51 198.26 80.76Q198.58 81.73 198.98 82.68Q200 85.06 201.59 86.96Q202.51 88.06 203.62 89.01ZM179.33 42.75Q182.91 40.22 188.02 39.86Q188.49 40.73 188.68 42.51Q188.89 44.27 188.79 45.82Q188.7 48.11 187.97 51.3Q187.44 53.62 186.55 55.78Q186.22 56.57 185.84 57.35Q184.46 60.21 182.35 62.22Q181.12 63.39 179.67 63.88Q178.62 64.24 177.45 64.24Q176.54 64.24 175.76 63.91Q174.67 63.45 173.84 62.34Q173.65 62.08 173.49 61.8Q172.47 60.04 172.58 57.63Q172.76 49.47 176.89 44.92Q178 43.69 179.33 42.75ZM437.28 42.75Q440.86 40.22 445.97 39.86Q446.44 40.73 446.63 42.51Q446.84 44.27 446.75 45.82Q446.65 48.11 445.93 51.3Q445.39 53.62 444.5 55.78Q444.17 56.57 443.79 57.35Q442.41 60.21 440.3 62.22Q439.08 63.39 437.62 63.88Q436.57 64.24 435.4 64.24Q434.49 64.24 433.71 63.91Q432.62 63.45 431.79 62.34Q431.61 62.08 431.45 61.8Q430.43 60.04 430.53 57.63Q430.72 49.47 434.84 44.92Q435.96 43.69 437.28 42.75ZM476.81 42.79Q480.37 40.22 485.52 39.86Q486.2 43.12 485.92 48.42Q485.76 50.62 485.27 52.75Q485.1 53.5 484.89 54.23Q484.09 57.04 482.69 59.32Q481.3 61.57 479.38 62.9Q478.53 63.49 477.59 63.82Q476.4 64.24 475.07 64.24Q474.1 64.24 473.29 63.88Q472.24 63.41 471.46 62.34Q471.28 62.09 471.13 61.83Q470.09 60.06 470.17 57.63Q470.36 49.47 474.44 44.92Q475.52 43.71 476.81 42.79ZM562.27 42.75Q565.85 40.22 570.96 39.86Q571.43 40.73 571.62 42.51Q571.83 44.27 571.74 45.82Q571.64 48.11 570.92 51.3Q570.39 53.62 569.49 55.78Q569.16 56.57 568.78 57.35Q567.4 60.21 565.29 62.22Q564.07 63.39 562.61 63.88Q561.56 64.24 560.39 64.24Q559.48 64.24 558.71 63.91Q557.61 63.45 556.78 62.34Q556.6 62.08 556.44 61.8Q555.42 60.04 555.52 57.63Q555.71 49.47 559.83 44.92Q560.95 43.69 562.27 42.75ZM393.42 56.64Q393.44 56.46 393.47 56.27Q394.62 48.42 398.16 44.08Q400.57 45.82 403.34 47.22Q406.12 48.6 409.19 49.66Q407.86 55.12 405.07 59.15Q403.42 61.56 401.14 62.91Q399.6 63.81 397.78 64.24Q397.14 64.41 396.59 64.26Q396.15 64.14 395.76 63.82Q394.9 63.09 394.31 61.89Q393.75 60.7 393.49 59.22Q393.29 57.91 393.42 56.64ZM230.29 56.53Q231.69 55.42 232.75 54.84Q232.28 57.04 231.51 59.06Q230.73 61.07 229.77 62.71Q228.81 64.35 227.8 65.36Q226.8 66.37 225.83 66.46Q224.98 66.55 224.57 66.16Q224.05 65.68 224.22 64.45Q224.41 63.18 225.37 61.75Q226.33 60.3 227.62 58.96Q228.91 57.63 230.29 56.53ZM524.62 56.53Q526.03 55.42 527.09 54.84Q526.62 57.04 525.84 59.06Q525.07 61.07 524.11 62.71Q523.15 64.35 522.14 65.36Q521.13 66.37 520.17 66.46Q519.32 66.55 518.9 66.16Q518.38 65.68 518.55 64.45Q518.74 63.18 519.7 61.75Q520.66 60.3 521.95 58.96Q523.24 57.63 524.62 56.53Z" fill="#000000" fill-opacity="1.000000" fill-rule="evenodd"/>
</svg>
